<?xml version="1.0" encoding="UTF-8"?><svg id="Layer_1" xmlns="http://www.w3.org/2000/svg" viewBox="0 0 104.82 33.52"><defs><style>.cls-1{fill:#7c7a77;}</style></defs><path class="cls-1" d="m102.53,1.21l.05-.2-5.46,1.59-.1.6h.57c.48,0,.87.08,1.11.32.01.01.03.03.04.04.01.01.02.02.03.04.01.01.02.03.03.05.01.01.02.03.03.04.01.02.02.03.03.05,0,.02.02.03.03.05,0,.02.02.04.02.05,0,.02.02.04.02.06,0,.02.01.04.02.06,0,.02.01.05.02.07,0,.02,0,.04.01.06,0,.03,0,.06.01.09,0,.02,0,.03,0,.05,0,.05,0,.1,0,.16,0,.23-.03.5-.1.83l-1.02,4.5c-.2-.25-.41-.49-.66-.68h0c-.17-.13-.36-.25-.58-.35-.01,0-.02,0-.03-.01-.06-.03-.13-.05-.19-.07,0,0-.02,0-.03-.01-.08-.03-.16-.05-.24-.07,0,0-.01,0-.02,0-.07-.02-.15-.03-.23-.04-.02,0-.05,0-.07-.01-.06,0-.13-.02-.2-.02-.03,0-.05,0-.08,0-.09,0-.19-.01-.29-.01-1.59,0-3.25.78-4.74,2.04-1.76,1.48-3.29,3.63-4.2,5.92-.56,1.41-.88,2.88-.88,4.28,0,.12,0,.23,0,.34,0,.03,0,.07,0,.1,0,.07,0,.15.01.22,0,.04,0,.07,0,.11,0,.07.01.14.02.2,0,.03,0,.07.01.1.01.08.02.15.04.22,0,.02,0,.04.01.06.02.09.04.18.06.27,0,.01,0,.02,0,.03.02.07.04.15.06.22,0,.02.01.04.02.07.02.06.04.12.06.18,0,.02.02.04.02.06.02.06.05.12.07.18,0,.01.01.03.02.04.07.15.14.28.22.41,0,0,0,0,0,0,.04.06.07.12.11.17,0,0,.01.02.02.02.04.05.08.1.12.15,0,0,0,.01.01.02.65.78,1.56,1.06,2.42,1.06,3.41,0,5.79-4.17,8.24-9.59l-.32,1.23h0s-1.23,4.69-1.23,4.69c-.13.46-.2.99-.2,1.45h0c0,.1,0,.19,0,.28,0,.02,0,.05,0,.07,0,.08.02.17.03.25,0,.01,0,.02,0,.03.01.09.03.18.05.26,0,.02.01.04.02.06.02.07.04.14.07.21,0,.01,0,.02.01.04.03.08.06.15.1.22,0,.01.01.02.02.04.03.06.07.12.11.17,0,.01.02.02.02.03.05.06.1.12.16.17,0,0,.01.01.02.02.05.05.11.09.17.12,0,0,.01.01.02.02,0,0,0,0,0,0,.22.14.5.22.84.22,1.85,0,3.6-2.28,5.03-4.37l-.31-.23-.18-.13c-.16.24-.31.47-.47.68-.16.22-.31.42-.46.61-.08.09-.15.19-.23.27-.15.17-.29.33-.44.47,0,0,0,0,0,.01-.07.07-.15.14-.22.21-.07.07-.14.13-.21.19-.49.41-.92.63-1.27.63-.03,0-.06,0-.09,0-.01,0-.03,0-.04,0-.21-.05-.33-.23-.33-.64,0-.2.03-.46.1-.76l4.75-20.61Zm-5.4,11.72c-.06.18-.12.36-.18.54-.12.36-.25.72-.38,1.07-.33.89-.7,1.75-1.09,2.57-.16.33-.32.65-.48.96-.25.47-.5.91-.76,1.33-.52.84-1.06,1.57-1.61,2.14-.27.29-.55.53-.82.74-.55.41-1.1.63-1.63.63-.07,0-.13,0-.2-.01-.02,0-.04,0-.06,0-.05,0-.09-.02-.14-.03-.02,0-.04-.01-.06-.02-.05-.01-.09-.03-.14-.05-.02,0-.04-.01-.05-.02-.05-.02-.1-.05-.15-.08-.59-.35-1.01-1.17-1.01-2.8,0-4.86,3.67-10.69,6.98-10.69.49,0,1.1.13,1.64.55.07.06.14.12.21.19,0,0,0,0,0,0,.07.07.13.14.2.22,0,0,0,.01.01.02.05.07.11.14.16.22.01.02.03.04.04.06.05.09.11.18.15.28-.18.71-.39,1.43-.62,2.16Zm-34.97-3.9s-.01,0-.02,0c-.12-.06-.24-.12-.37-.17,0,0,0,0,0,0-.13-.05-.26-.1-.4-.14-.01,0-.03,0-.04-.01-.12-.04-.24-.07-.36-.1-.02,0-.05-.01-.07-.02-.14-.03-.28-.06-.42-.08-.02,0-.03,0-.05,0-.13-.02-.26-.03-.39-.04-.04,0-.08,0-.12,0-.15,0-.3-.02-.46-.02-1.84,0-3.43.67-4.72,1.74-.35.29-.68.61-.99.96-.2.23-.4.47-.58.72-1.47,2.01-2.27,4.6-2.27,6.93,0,.12,0,.25,0,.37,0,.04,0,.07,0,.11,0,.09,0,.18.02.27,0,.04,0,.07,0,.11.01.11.02.22.04.33,0,0,0,.01,0,.02.02.12.03.24.05.35,0,.03.01.06.02.09.02.09.03.18.05.27,0,.03.01.06.02.09.03.11.05.21.08.31,0,0,0,.01,0,.02.03.11.07.22.11.33,0,.02.01.04.02.06.03.09.07.18.1.26,0,.02.02.05.03.07.04.1.09.2.13.29,0,0,0,0,0,.01.05.1.11.21.16.31,0,.01.01.02.02.03.05.09.1.17.16.25.01.02.02.03.03.05.06.09.12.17.19.26,0,0,0,0,0,0,.07.09.15.18.22.26,0,0,0,0,0,.01.07.08.14.15.22.23.01.01.03.03.04.04.08.07.15.14.24.21,0,0,0,0,.02.01.09.07.19.14.28.21.82.56,1.86.88,3.17.88,5.36,0,8.67-5.43,8.67-10.16,0-2.44-.87-4.68-2.86-5.72Zm-5.71,14.98c-.07,0-.13,0-.19,0-.03,0-.06,0-.1,0-.03,0-.06,0-.09,0-.04,0-.09-.01-.13-.02-.02,0-.03,0-.05,0-.05-.01-.1-.02-.15-.04,0,0-.01,0-.02,0-.05-.01-.1-.03-.15-.05,0,0,0,0,0,0-.16-.06-.3-.13-.43-.21h0c-1.09-.71-1.43-2.37-1.43-4.14,0-4.66,2.31-10.19,5.72-10.19.62,0,1.11.18,1.5.5.06.05.11.1.17.15,0,0,0,0,.01.01.11.11.2.22.29.35,0,0,0,.01.01.02.09.13.17.27.24.41,0,0,0,.01,0,.02.03.07.07.14.1.22,0,0,0,0,0,.01.03.08.06.16.09.24,0,0,0,0,0,0,.03.08.05.16.07.24,0,.01,0,.02,0,.03.05.17.09.34.12.52,0,.02,0,.03,0,.05.02.08.03.16.04.25,0,0,0,.01,0,.02.01.09.02.18.04.27,0,.02,0,.04,0,.05,0,.08.02.15.02.23,0,.02,0,.04,0,.06,0,.09.01.18.02.28,0,.02,0,.03,0,.05,0,.08,0,.16,0,.24,0,.03,0,.05,0,.08,0,.09,0,.19,0,.28,0,4.6-2.28,10.12-5.76,10.12ZM16.29,9.05s0,0,.01,0c-.07-.06-.15-.11-.23-.16-.03-.02-.06-.04-.1-.06-.06-.03-.12-.07-.18-.1-.03-.02-.07-.03-.11-.05-.07-.03-.15-.06-.22-.09-.02,0-.04-.02-.07-.02-.1-.03-.2-.06-.3-.08-.03,0-.06-.01-.1-.02-.08-.01-.16-.03-.24-.04-.03,0-.07,0-.1-.01-.11,0-.22-.02-.33-.02,0,0,0,0,0,0-.08,0-.17,0-.25,0-.03,0-.06,0-.09,0-.05,0-.11,0-.16.02-.03,0-.07.01-.1.02-.05,0-.1.01-.14.02-.04,0-.07.02-.11.03-.05.01-.09.02-.14.03-.04.01-.08.02-.12.03-.04.01-.09.03-.13.04-.04.01-.08.03-.12.04-.04.02-.08.03-.12.05-.04.02-.08.03-.12.05-.04.02-.08.03-.12.05-.04.02-.08.04-.12.06-.04.02-.08.04-.12.06-.04.02-.08.05-.13.07-.04.02-.07.04-.11.07-.04.03-.09.05-.13.08-.04.02-.07.05-.11.07-.04.03-.09.06-.13.09-.03.02-.07.05-.1.07-.04.03-.09.07-.13.1-.03.03-.07.05-.1.08-.05.04-.09.07-.14.11-.03.03-.06.05-.1.08-.05.04-.09.08-.14.12-.03.03-.06.06-.09.08-.05.04-.1.09-.14.14-.03.03-.06.06-.09.08-.05.05-.1.1-.15.15-.03.03-.05.05-.08.08-.05.05-.11.11-.16.17-.02.02-.04.05-.07.07-.06.06-.11.12-.17.19-.02.02-.03.04-.05.06-.06.07-.12.14-.18.22,0,.01-.02.02-.03.03-1.1,1.33-2.2,3.1-3.38,5.24L9.97,1.21l.05-.2-5.46,1.59-.1.6h.56c.5,0,.89.08,1.14.31.09.08.16.19.2.32,0,0,0,.01,0,.02.02.06.04.13.05.2,0,.01,0,.02,0,.03.01.07.02.15.02.24,0,.23-.03.53-.13.89L2.24,22.98c1.59,1.32,3.37,1.92,5.16,1.92,5.26,0,10.42-5.03,10.42-11.51,0-2.18-.59-3.59-1.53-4.33Zm-9.22,15.05c-.09,0-.18,0-.28,0-.04,0-.09,0-.13-.01-.05,0-.1,0-.15-.01-.06,0-.12-.02-.18-.03-.03,0-.07-.01-.1-.02-.07-.01-.14-.03-.21-.04-.02,0-.05,0-.07-.02-.08-.02-.16-.04-.23-.06-.01,0-.03,0-.04-.01-.08-.03-.17-.05-.26-.08,0,0-.02,0-.02,0-.09-.03-.18-.07-.27-.1,0,0,0,0,0,0-.09-.04-.19-.08-.28-.13-.06-.03-.13-.06-.19-.09,1.32-7.28,6.25-12.97,8.57-12.97.34,0,.64.13.87.39.01.01.02.02.03.04.03.03.05.07.08.1,0,.01.02.02.02.03.03.05.06.1.09.15,0,.02.02.03.02.05.02.04.04.09.06.14,0,.02.01.03.02.05.03.06.05.13.07.19,0,.02.01.04.02.05.02.06.03.12.05.18,0,.02.01.04.02.06.02.08.04.16.05.24,0,.02,0,.03,0,.05.01.07.02.15.03.23,0,.02,0,.05,0,.07.01.09.02.19.03.29,0,.01,0,.03,0,.04,0,.09.01.19.02.29,0,.03,0,.06,0,.09,0,.11,0,.23,0,.35,0,5.23-3.57,10.52-7.68,10.52Zm31.87-2.02c-.08,0-.16,0-.23-.01-.02,0-.04,0-.06,0-.06,0-.11-.02-.16-.03-.02,0-.03,0-.05-.01-.06-.02-.13-.04-.18-.06,0,0,0,0,0,0-.06-.03-.12-.06-.18-.09-.48-.28-.69-.83-.69-1.47,0-.4.06-.83.23-1.26l2.35-6.72c.26-.76.4-1.45.4-1.95,0-.74-.29-1.29-.71-1.63h0s0,0,0,0c-.04-.03-.08-.06-.12-.09,0,0-.01,0-.02-.01-.04-.03-.08-.05-.12-.07-.01,0-.02-.01-.03-.02-.04-.02-.08-.04-.11-.06-.01,0-.03-.01-.04-.02-.04-.02-.07-.03-.11-.04-.02,0-.04-.01-.06-.02-.03-.01-.07-.02-.1-.03-.02,0-.05-.01-.08-.02-.03,0-.06-.01-.09-.02-.03,0-.07,0-.1-.01-.02,0-.05,0-.07,0-.06,0-.11,0-.17,0-.51,0-1.08.19-1.69.59-.51.33-1.04.81-1.59,1.45-.11.13-.22.26-.33.4-.22.28-.44.59-.66.92s-.44.69-.66,1.07l.19.12.31.21c1.09-1.79,2.42-2.81,3.04-2.81.17,0,.34.07.46.21.01.02.03.03.04.05.01.02.02.03.03.05,0,.02.02.04.03.06,0,.02.02.05.02.08,0,.02.01.03.01.05,0,.05.01.1.01.15,0,.2-.06.46-.17.76l-2.41,7.05c-.3.86-.43,1.62-.43,2.28,0,.12,0,.24.01.35,0,.02,0,.05,0,.07,0,.11.02.22.04.32,0,.02,0,.03,0,.05.02.09.04.19.06.27,0,.02,0,.04.01.06.03.1.06.19.09.28,0,.02.02.04.02.06.03.08.07.17.1.25,0,0,0,.02.01.03.04.08.09.16.13.24.01.02.02.04.04.06.05.07.1.15.15.22.01.01.02.03.03.04.05.06.1.12.15.17.02.02.03.03.05.05.06.06.12.12.18.17.02.02.04.03.05.04.06.05.11.09.17.13.01,0,.03.02.04.03,0,0,0,0,0,0,0,0,0,0,0,0,.49.33,1.09.5,1.74.5,2.45,0,5.89-2.48,8.8-9.73l-.76,3.01c-2.35,9.26-7.01,12.14-10.36,12.14-.13,0-.26,0-.39-.01-.02,0-.04,0-.06,0-.12,0-.25-.02-.37-.04-.02,0-.04,0-.06,0-.13-.02-.25-.04-.37-.07,0,0-.01,0-.02,0-.13-.03-.25-.06-.38-.1,0,0,0,0,0,0-.12-.04-.25-.08-.36-.12,0,0-.02,0-.03,0-.12-.05-.24-.1-.35-.15,0,0,0,0,0,0-.24-.11-.46-.24-.67-.39-1.13-.78-1.85-2.02-1.85-3.59v-.36l-.53-.13c-.05.16-.09.32-.13.48-.07.33-.12.67-.15,1-.01.17-.02.34-.02.5,0,.1,0,.21,0,.31,0,.03,0,.06,0,.09,0,.08.01.16.02.23,0,.03,0,.06,0,.09.02.21.05.42.09.62,0,.02,0,.05.01.07.02.08.04.17.06.25,0,.02,0,.04.02.06.05.21.12.41.2.61,0,.01.01.03.02.04.04.09.07.18.11.28,0,0,0,.02,0,.02.09.2.19.4.31.59,0,0,0,0,0,.01.35.57.8,1.08,1.36,1.46,0,0,0,0,0,0,0,0,0,0,0,0,.74.51,1.67.82,2.8.82,3.54,0,9.79-3.08,12.57-13.1l2.98-10.69h-2.25c-2.61,10.06-6.72,13.37-9.07,13.37Zm-7.83-3.84c-.64,1.23-1.37,2.21-2.13,2.95-.63.62-1.28,1.07-1.92,1.37-.64.3-1.26.44-1.84.44-.12,0-.24,0-.35-.02-.01,0-.03,0-.04,0-.1-.01-.2-.03-.3-.06-.02,0-.04,0-.06-.01-.09-.02-.18-.05-.26-.09-.02,0-.05-.02-.07-.03-.08-.03-.16-.07-.23-.12-.02-.01-.04-.03-.07-.04-1.09-.68-1.56-2.22-1.56-4.03,0-.53.03-1.13.13-1.69,6.12-1.23,9.89-2.58,9.89-5.46,0-.89-.35-1.65-1.04-2.18,0,0,0,0,0,0,0,0,0,0,0,0-.07-.05-.14-.1-.21-.15-.02-.01-.04-.03-.06-.04-.07-.05-.15-.09-.24-.13-.02-.01-.05-.03-.07-.04-.08-.04-.17-.08-.26-.11-.03-.01-.05-.02-.08-.03-.09-.03-.18-.06-.28-.09-.03,0-.06-.02-.09-.03-.09-.03-.19-.05-.29-.07-.04,0-.07-.02-.11-.03-.1-.02-.2-.04-.3-.05-.04,0-.08-.01-.12-.02-.11-.01-.23-.02-.34-.03-.04,0-.08,0-.12-.01-.16,0-.32-.01-.49-.01-.87,0-1.69.14-2.45.4-.3.1-.59.23-.88.37-.28.14-.56.3-.82.47-.66.43-1.25.95-1.78,1.54-.11.12-.21.24-.31.36-.2.25-.39.5-.57.77-.09.13-.18.27-.26.4-.17.27-.32.55-.47.84-.36.72-.65,1.47-.87,2.24-.09.31-.16.61-.22.92-.16.77-.23,1.53-.23,2.27,0,.12,0,.25,0,.37,0,.03,0,.07,0,.1,0,.1.01.19.02.28,0,.03,0,.06,0,.09.01.12.02.24.04.35,0,.02,0,.04,0,.06.01.1.03.19.04.29,0,.03.01.06.02.1.02.1.04.2.06.3,0,.01,0,.03,0,.04.03.11.05.22.09.33,0,.02.01.05.02.07.03.09.05.18.08.26,0,.02.02.05.02.07.07.21.16.42.25.61.01.02.02.04.03.07.04.08.08.17.13.25,0,.01.01.03.02.04.05.09.11.19.17.28,0,.01.01.02.02.03.05.08.11.15.16.23.01.02.03.03.04.05.13.17.27.32.42.46.01.01.03.02.04.04.06.06.13.12.2.18.01.01.03.02.04.03.7.57,1.6.9,2.69.9,2.91,0,5.82-2.35,7.64-6.42l-.53-.23Zm-3.24-9.1c.5,0,.89.14,1.19.39,0,0,0,0,0,0,.05.05.11.1.15.15,0,0,0,0,0,0,.14.16.26.35.34.57,0,0,0,0,0,0,.02.06.05.13.06.2,0,.02,0,.04.01.05.01.06.03.11.04.17,0,.02,0,.05.01.07,0,.06.02.12.02.18,0,.02,0,.05,0,.07,0,.08,0,.17,0,.25,0,.07,0,.15,0,.22,0,.03,0,.05,0,.08,0,.05,0,.09-.01.14,0,.03-.01.06-.02.09,0,.04-.01.08-.02.12,0,.04-.02.07-.03.1,0,.03-.02.07-.03.1-.01.04-.02.07-.03.11-.01.03-.02.06-.03.1-.01.04-.03.08-.04.11-.01.03-.02.06-.04.09-.02.04-.04.08-.06.12-.01.03-.03.05-.04.08-.02.04-.04.08-.07.12-.01.02-.03.05-.04.07-.02.04-.05.08-.08.12-.01.02-.03.04-.04.07-.03.04-.06.08-.09.12-.02.02-.03.04-.05.06-.03.04-.07.08-.1.12-.02.02-.03.04-.05.06-.04.04-.08.08-.11.12-.02.02-.03.03-.05.05-.04.04-.08.08-.13.12-.02.02-.03.03-.05.05-.05.04-.09.08-.14.12-.02.01-.03.03-.05.04-.05.04-.1.08-.16.12-.02.01-.03.02-.05.04-.06.04-.11.08-.17.12-.02.01-.03.02-.05.03-.06.04-.12.08-.18.12-.01,0-.03.02-.04.03-.06.04-.13.08-.2.12-.01,0-.03.02-.04.03-.07.04-.14.08-.21.12-.01,0-.03.02-.04.02-.07.04-.15.08-.23.12-.01,0-.02.01-.04.02-.08.04-.16.08-.25.12-.01,0-.02.01-.03.02-.09.04-.17.08-.26.12-.01,0-.02,0-.03.01-.09.04-.18.08-.28.12,0,0-.02,0-.03.01-.1.04-.19.08-.29.11,0,0-.02,0-.02,0-.1.04-.2.07-.31.11,0,0-.01,0-.02,0-.11.04-.21.07-.32.11,0,0-.01,0-.02,0-.11.04-.23.07-.34.11,0,0,0,0-.01,0-.12.03-.24.07-.36.1,0,0,0,0-.01,0-.12.03-.25.07-.37.1,0,0,0,0,0,0-.13.03-.25.06-.39.1,0,0,0,0,0,0-.13.03-.26.06-.4.09,0,0,0,0,0,0-.14.03-.27.06-.41.09-.07.02-.15.03-.22.05.69-3.54,2.78-7.11,5.36-7.11Zm55.59,11.02c-1.26,1.92-2.61,3.08-3.44,3.08-.03,0-.06,0-.09,0-.03,0-.05,0-.07-.02-.18-.06-.27-.22-.27-.5,0-.26.07-.56.17-.89l2.91-9.5c.13-.43.23-.92.23-1.45,0-.82-.26-1.54-.8-1.99,0,0,0,0,0,0,0,0-.02-.02-.03-.02-.02-.02-.05-.04-.07-.05-.03-.02-.06-.04-.1-.06-.02-.02-.05-.03-.07-.04-.04-.03-.09-.05-.14-.07-.02,0-.04-.02-.06-.03-.06-.03-.12-.05-.18-.07-.02,0-.05-.01-.07-.02-.05-.01-.1-.03-.15-.04-.03,0-.06-.01-.08-.02-.05,0-.11-.02-.16-.02-.03,0-.05,0-.08,0-.08,0-.17-.01-.26-.01-.07,0-.14,0-.21,0-.02,0-.05,0-.07,0-.05,0-.09,0-.14.01-.03,0-.06,0-.09.01-.04,0-.08.01-.13.02-.03,0-.07.01-.1.02-.04,0-.08.02-.12.03-.04,0-.07.02-.11.03-.04.01-.08.02-.12.03-.04.01-.07.02-.11.04-.04.01-.08.03-.12.04-.04.01-.08.03-.12.04-.04.02-.08.03-.12.05-.04.02-.08.03-.12.05-.04.02-.08.04-.12.05-.04.02-.08.04-.13.06-.04.02-.08.04-.12.06-.04.02-.09.05-.13.07-.04.02-.08.04-.12.07-.04.03-.09.05-.14.08-.04.02-.08.05-.12.08-.05.03-.09.06-.14.09-.04.03-.08.05-.12.08-.05.03-.1.07-.14.1-.04.03-.08.06-.12.09-.05.04-.1.08-.15.12-.04.03-.08.06-.12.1-.05.04-.1.08-.15.13-.04.03-.08.07-.12.1-.05.05-.11.09-.16.14-.04.04-.08.07-.12.11-.05.05-.11.1-.16.16-.04.04-.08.08-.12.12-.06.06-.11.11-.17.17-.04.04-.08.08-.11.12-.06.06-.12.12-.17.19-.04.04-.07.08-.11.13-.06.07-.12.14-.18.21-.04.04-.07.08-.11.13-.06.07-.12.15-.19.23-.03.04-.07.08-.1.12-.07.08-.13.17-.2.25-.03.04-.06.08-.09.11-.07.09-.14.19-.21.29-.02.03-.04.06-.06.09-.08.11-.16.22-.24.34,0,0,0,0,0,0-.39.56-.79,1.19-1.19,1.87,0,.01-.01.02-.02.04-.08.14-.16.28-.25.43-.02.04-.05.08-.07.12-.08.13-.15.27-.23.41-.03.06-.06.11-.09.17-.07.13-.14.27-.22.41-.04.07-.07.13-.11.2-.07.13-.14.27-.21.41-.03.06-.06.12-.09.18h0c-.14.28-.27.55-.41.84l1.49-6.29c.13-.53.17-1.03.17-1.36,0-1.05-.38-1.71-1.04-1.93,0,0,0,0,0,0-.08-.03-.16-.04-.24-.06-.01,0-.03,0-.04,0-.08-.01-.17-.02-.26-.02-.53,0-1.12.19-1.74.59-.52.33-1.06.81-1.6,1.45-.11.13-.22.26-.33.4-.22.28-.44.59-.66.92s-.44.69-.66,1.07l.5.4s0,0,0,0c1.02-1.82,2.38-2.88,3.04-2.88.14,0,.27.06.37.17.02.02.04.05.05.08,0,0,.01.02.02.02.01.03.03.06.04.1,0,.01,0,.02.01.03.01.04.02.08.02.12,0,.01,0,.02,0,.04,0,.05.01.11.01.18,0,.1,0,.21-.02.32-.02.12-.04.24-.08.37l-2.84,12.74h2.31c2.25-9.63,7.25-13.86,9.07-13.86.24,0,.42.07.54.22.02.03.05.06.07.09,0,.01.02.03.03.04.02.04.03.08.05.12,0,.02.01.03.02.05.01.05.02.1.03.15,0,.02,0,.04.01.06,0,.08.01.16.01.25,0,.43-.1.89-.26,1.45l-2.32,7.64c-.2.66-.5,1.65-.5,2.38,0,.08,0,.15.01.23,0,.02,0,.04,0,.06,0,.05.01.11.02.16,0,.02,0,.04.01.06.01.06.03.13.05.18,0,0,0,0,0,.01.02.07.05.13.08.2,0,0,0,0,0,.01.03.06.06.11.09.16,0,0,0,.01.01.02.11.17.26.31.43.42h0c.25.16.56.24.92.24,1.49,0,3.54-1.55,5.36-4.37l-.29-.22-.18-.14Z"/></svg>